<svg width="380" height="358" viewBox="0 0 380 358" fill="none" xmlns="http://www.w3.org/2000/svg">
<rect opacity="0.3" x="8" y="2" width="372" height="354" rx="15" fill="#0E40D7"/>
<path d="M380 240.268H234.221V159.506H380V240.268ZM235.111 239.417H379.11V160.358H235.111V239.417Z" fill="#E0E0E0"/>
<path d="M349.926 202.569H253.745V205.269H349.926V202.569Z" fill="#F0F0F0"/>
<path d="M356.553 212.635H253.745V215.581H356.553V212.635Z" fill="#F0F0F0"/>
<path d="M356.553 222.82H253.745V225.766H356.553V222.82Z" fill="#F0F0F0"/>
<path d="M287.359 187.948H253.745V194.956H287.359V187.948Z" fill="#F0F0F0"/>
<path d="M379.555 159.932H234.693V172.79H379.555V159.932Z" fill="#E0E0E0"/>
<path d="M368.41 170.866C368.223 170.695 370.091 168.541 372.573 166.054C375.054 163.568 377.234 161.686 377.412 161.848C377.589 162.01 375.73 164.173 373.249 166.668C370.767 169.163 368.588 171.036 368.41 170.866Z" fill="white"/>
<path d="M377.429 170.866C377.251 171.036 375.081 169.163 372.591 166.668C370.1 164.172 368.241 162.018 368.428 161.848C368.615 161.677 370.776 163.551 373.267 166.054C375.757 168.558 377.598 170.695 377.429 170.866Z" fill="white"/>
<path d="M200.616 0H55.7534V79.919H200.616V0Z" fill="#E6E6E6"/>
<path d="M170.996 42.6462H74.8152V45.3456H170.996V42.6462Z" fill="#F0F0F0"/>
<path d="M177.623 52.7117H74.8152V55.6581H177.623V52.7117Z" fill="#F0F0F0"/>
<path d="M177.623 62.8963H74.8152V65.8427H177.623V62.8963Z" fill="#F0F0F0"/>
<path d="M108.429 28.0249H74.8152V35.0333H108.429V28.0249Z" fill="#F0F0F0"/>
<path d="M200.616 0H55.7534V12.8586H200.616V0Z" fill="#E0E0E0"/>
<path d="M188.982 10.8744C188.795 10.7126 190.663 8.54959 193.144 6.06303C195.626 3.57647 197.805 1.69452 197.983 1.86483C198.161 2.03514 196.302 4.18959 193.82 6.67615C191.339 9.16271 189.159 11.0276 188.982 10.8744Z" fill="white"/>
<path d="M197.983 10.8744C197.805 11.0447 195.635 9.17127 193.144 6.6762C190.654 4.18112 188.795 2.03519 188.981 1.86488C189.168 1.69456 191.33 3.568 193.82 6.06307C196.311 8.55815 198.17 10.7126 197.983 10.8744Z" fill="white"/>
<path d="M153.752 148.461H8V67.6907H153.752V148.461ZM8.88949 147.61H152.863V68.5422H8.88949V147.61Z" fill="#E0E0E0"/>
<path d="M115.687 110.763H19.5065V113.462H115.687V110.763Z" fill="#F0F0F0"/>
<path d="M122.314 120.828H19.5065V123.774H122.314V120.828Z" fill="#F0F0F0"/>
<path d="M122.314 131.013H19.5065V133.959H122.314V131.013Z" fill="#F0F0F0"/>
<path d="M53.1204 96.1412H19.5065V103.15H53.1204V96.1412Z" fill="#F0F0F0"/>
<path d="M153.307 68.1164H8.44476V80.975H153.307V68.1164Z" fill="#E0E0E0"/>
<path d="M313.964 166.966H142.915V313.57H313.964V166.966Z" fill="#E6E6E6"/>
<path d="M151.516 120.785H17.523V254.063H151.516V120.785Z" fill="#F0F0F0"/>
<path d="M151.516 120.785H17.523V135.305H151.516V120.785Z" fill="#E0E0E0"/>
<path d="M28.5883 127.896C28.5639 128.423 28.3785 128.931 28.0552 129.357C27.7319 129.784 27.2849 130.11 26.7696 130.296C26.2543 130.481 25.6935 130.518 25.1567 130.401C24.6199 130.284 24.1308 130.019 23.7501 129.638C23.3694 129.257 23.1137 128.778 23.015 128.259C22.9163 127.741 22.9787 127.206 23.1946 126.721C23.4106 126.237 23.7704 125.823 24.2296 125.532C24.6887 125.242 25.227 125.086 25.7775 125.086C26.5387 125.104 27.2617 125.409 27.7883 125.936C28.315 126.462 28.6026 127.167 28.5883 127.896Z" fill="white"/>
<path d="M40.0005 127.896C39.9778 128.425 39.7931 128.936 39.4694 129.365C39.1458 129.795 38.6973 130.123 38.18 130.31C37.6627 130.498 37.0993 130.535 36.56 130.418C36.0206 130.301 35.5291 130.035 35.1466 129.652C34.7641 129.27 34.5075 128.788 34.4088 128.267C34.31 127.746 34.3735 127.209 34.5912 126.722C34.809 126.236 35.1714 125.821 35.6334 125.53C36.0954 125.239 36.6366 125.085 37.1897 125.086C37.9509 125.104 38.6739 125.409 39.2006 125.936C39.7272 126.462 40.0148 127.167 40.0005 127.896Z" fill="white"/>
<path d="M51.4126 127.896C51.39 128.425 51.2053 128.936 50.8816 129.365C50.5579 129.795 50.1095 130.123 49.5922 130.31C49.0749 130.498 48.5115 130.535 47.9721 130.418C47.4328 130.301 46.9413 130.035 46.5588 129.652C46.1763 129.27 45.9197 128.788 45.8209 128.267C45.7222 127.746 45.7857 127.209 46.0034 126.722C46.2211 126.236 46.5836 125.821 47.0456 125.53C47.5076 125.239 48.0488 125.085 48.6018 125.086C49.3631 125.104 50.0861 125.409 50.6127 125.936C51.1394 126.462 51.427 127.167 51.4126 127.896Z" fill="white"/>
<path d="M360.867 29.1489H189.818V192.359H360.867V29.1489Z" fill="#F0F0F0"/>
<path d="M360.867 29.1489H189.818V48.2665H360.867V29.1489Z" fill="#E0E0E0"/>
<path d="M204.387 38.5161C204.356 39.2111 204.112 39.882 203.686 40.4455C203.26 41.0089 202.67 41.4401 201.99 41.6855C201.31 41.931 200.57 41.9798 199.861 41.8259C199.153 41.6721 198.507 41.3224 198.004 40.8202C197.501 40.318 197.164 39.6855 197.033 39.0012C196.902 38.3168 196.985 37.6109 197.269 36.9709C197.554 36.3309 198.029 35.7851 198.635 35.4013C199.241 35.0174 199.952 34.8125 200.678 34.8118C201.683 34.8342 202.637 35.2365 203.332 35.9307C204.027 36.625 204.407 37.5546 204.387 38.5161Z" fill="white"/>
<path d="M218.326 36.0125C218.819 36.5252 219.144 37.1655 219.259 37.8535C219.375 38.5416 219.277 39.247 218.977 39.882C218.677 40.5169 218.188 41.0533 217.572 41.4242C216.955 41.7951 216.239 41.9843 215.511 41.968C214.783 41.9517 214.076 41.7308 213.479 41.3328C212.881 40.9347 212.419 40.3771 212.15 39.7295C211.882 39.0818 211.818 38.3728 211.967 37.6906C212.116 37.0085 212.471 36.3834 212.989 35.8933C213.714 35.2329 214.683 34.8746 215.683 34.8969C216.684 34.9193 217.634 35.3205 218.326 36.0125Z" fill="white"/>
<path d="M234.435 38.5161C234.403 39.2111 234.159 39.882 233.733 40.4455C233.307 41.0089 232.717 41.4401 232.037 41.6855C231.357 41.931 230.617 41.9798 229.909 41.8259C229.2 41.6721 228.554 41.3224 228.051 40.8202C227.548 40.318 227.211 39.6855 227.08 39.0012C226.949 38.3168 227.032 37.6109 227.317 36.9709C227.601 36.3309 228.076 35.7851 228.682 35.4013C229.288 35.0174 229.999 34.8125 230.725 34.8118C231.73 34.8342 232.684 35.2365 233.379 35.9307C234.074 36.625 234.454 37.5546 234.435 38.5161Z" fill="white"/>
<path d="M323.917 356.872C323.917 356.992 262.151 357.094 185.984 357.094C109.817 357.094 48.0237 356.992 48.0237 356.872C48.0237 356.753 109.781 356.651 185.984 356.651C262.187 356.651 323.917 356.762 323.917 356.872Z" fill="#263238"/>
<path d="M263.734 252.624C249.992 243.436 246.879 226.379 247.421 211.042C247.51 208.488 247.217 205.78 248.488 203.54C249.76 201.301 252.731 199.759 255.124 200.832C257.108 201.726 257.97 203.94 259.082 205.771C260.566 208.21 262.74 210.197 265.353 211.502C267.052 212.354 269.16 212.865 270.841 211.979C273.154 210.761 273.421 207.721 273.403 205.167C273.403 200.415 273.374 195.669 273.314 190.929C273.154 188.383 273.425 185.83 274.115 183.367C274.942 180.948 276.783 178.709 279.3 178.027C281.818 177.346 284.958 178.751 285.527 181.238C285.625 182.291 285.652 183.349 285.607 184.406C285.678 185.47 286.194 186.637 287.235 186.96C288.275 187.284 289.361 186.543 290.161 185.794C292.901 183.239 294.769 179.909 296.503 176.622C298.238 173.335 299.937 169.955 302.427 167.153C304.918 164.351 308.36 162.129 312.212 161.916C316.063 161.703 320.075 163.968 321.035 167.545C321.996 171.121 319.817 174.774 317.478 177.678C313.947 181.989 309.786 185.789 305.122 188.961C304.212 189.437 303.486 190.181 303.05 191.082C302.472 192.785 304.153 194.488 305.905 195.025C307.889 195.655 310.041 195.459 312.132 195.697C314.222 195.936 316.446 196.804 317.237 198.678C318.323 201.284 316.045 204.009 313.813 205.797C309.33 209.373 304.239 212.187 298.763 214.117C296.806 214.798 294.751 215.402 293.168 216.714C291.584 218.025 290.642 220.316 291.593 222.113C292.545 223.91 294.991 224.48 297.046 224.114C299.101 223.748 300.924 222.692 302.881 221.985C306.537 220.665 311.251 220.904 313.555 223.927C314.269 224.968 314.72 226.154 314.875 227.39C315.029 228.627 314.882 229.881 314.444 231.054C313.554 233.389 312.184 235.528 310.415 237.347C304.589 244.011 297.02 249.074 288.48 252.02C280.003 254.83 272.149 255.596 263.726 252.641" fill="#0E40D7"/>
<path d="M317.122 164.019C317.122 164.019 317.042 164.104 316.864 164.258L316.072 164.93C315.378 165.527 314.356 166.395 313.066 167.545C309.409 170.795 306.013 174.305 302.908 178.045C300.924 180.403 298.869 183.077 296.681 185.981C294.493 188.885 292.234 192.019 289.992 195.348C287.603 198.859 285.414 202.492 283.437 206.231C282.405 208.181 281.498 210.216 280.564 212.294L277.806 218.638C274.172 226.629 271.006 234.809 268.324 243.138C266.164 249.953 264.675 256.946 263.877 264.027C263.36 268.805 263.276 273.617 263.628 278.41C263.77 280.113 263.904 281.416 264.028 282.301C264.081 282.727 264.117 283.068 264.153 283.315V283.664C264.114 283.553 264.087 283.439 264.073 283.323C264.028 283.076 263.975 282.744 263.904 282.318C263.743 281.467 263.574 280.121 263.414 278.418C262.985 273.617 263.015 268.788 263.503 263.993C264.252 256.882 265.709 249.856 267.853 243.01C270.512 234.658 273.669 226.458 277.308 218.451L280.137 212.132C281.071 210.063 281.987 208.011 283.028 206.052C285.019 202.302 287.225 198.661 289.637 195.144C291.914 191.738 294.209 188.655 296.37 185.777C298.531 182.898 300.622 180.207 302.596 177.857C305.734 174.128 309.175 170.642 312.888 167.434C314.204 166.301 315.254 165.45 315.965 164.879L316.793 164.241C316.894 164.156 317.004 164.082 317.122 164.019Z" fill="#263238"/>
<path d="M283.143 206.035C283.018 205.685 282.931 205.322 282.885 204.954C282.743 204.247 282.583 203.251 282.396 201.956C282.014 199.402 281.622 195.902 281.204 192.027C280.786 188.153 280.315 184.644 279.923 182.115C279.719 180.855 279.541 179.841 279.416 179.134C279.319 178.773 279.268 178.401 279.265 178.027C279.418 178.369 279.529 178.726 279.594 179.092C279.79 179.79 280.012 180.795 280.261 182.064C280.768 184.619 281.266 188.093 281.684 191.976C282.102 195.859 282.458 199.265 282.734 201.914C282.867 203.106 282.983 204.119 283.072 204.928C283.141 205.293 283.165 205.665 283.143 206.035Z" fill="#263238"/>
<path d="M317.371 199.921C316.938 200.011 316.497 200.063 316.054 200.074C315.165 200.151 313.902 200.253 312.336 200.424C309.205 200.747 304.9 201.343 300.177 202.195C295.454 203.046 291.211 204.009 288.16 204.749C286.639 205.124 285.411 205.465 284.602 205.695C284.17 205.842 283.723 205.944 283.268 206.001C283.679 205.803 284.107 205.641 284.549 205.516C285.385 205.235 286.594 204.843 288.107 204.426C291.14 203.574 295.383 202.561 300.124 201.692C304.14 200.957 308.192 200.417 312.265 200.074C313.84 199.947 315.112 199.896 316.001 199.879C316.458 199.849 316.917 199.863 317.371 199.921Z" fill="#263238"/>
<path d="M268.289 242.414C268.194 242.291 268.116 242.156 268.057 242.014L267.47 240.83C266.963 239.8 266.278 238.275 265.46 236.411C263.806 232.664 261.698 227.418 259.456 221.593C257.215 215.769 255.151 210.523 253.585 206.734C252.82 204.894 252.189 203.387 251.717 202.263L251.219 201.045C251.15 200.905 251.102 200.756 251.077 200.602C251.172 200.726 251.25 200.86 251.308 201.003L251.895 202.186C252.393 203.217 253.087 204.741 253.906 206.606C255.56 210.353 257.668 215.598 259.91 221.423C262.151 227.248 264.215 232.493 265.78 236.283C266.545 238.122 267.177 239.629 267.639 240.753C267.844 241.239 268.013 241.605 268.146 241.971C268.215 242.112 268.263 242.261 268.289 242.414Z" fill="#263238"/>
<path d="M313.724 228.389C313.582 228.467 313.429 228.527 313.27 228.568L311.954 228.993L307.088 230.501C302.979 231.778 297.304 233.6 291.077 235.61C284.851 237.62 279.149 239.408 275.013 240.6C272.95 241.205 271.268 241.665 270.103 241.971L268.76 242.303C268.604 242.351 268.443 242.382 268.28 242.397C268.422 242.319 268.575 242.259 268.733 242.218L270.05 241.792L274.915 240.285C279.025 239.008 284.7 237.185 290.926 235.176C297.153 233.166 302.845 231.378 306.982 230.186C309.054 229.581 310.726 229.121 311.9 228.815L313.244 228.483C313.4 228.435 313.561 228.404 313.724 228.389Z" fill="#263238"/>
<path d="M295.187 21.8256L290.606 23.3924L288.64 17.6614C285.029 7.09354 273.519 1.48175 262.943 5.0498C252.367 8.61784 246.736 20.2076 250.348 30.7755L252.313 36.5065L247.715 38.0819C245.961 38.733 244.537 40.0061 243.739 41.6364C242.94 43.2667 242.829 45.1289 243.427 46.8359L256.174 84.1258C256.438 84.9708 256.878 85.7563 257.466 86.4356C258.054 87.1149 258.778 87.6741 259.596 88.08C260.414 88.4859 261.309 88.7302 262.228 88.7985C263.147 88.8667 264.07 88.7575 264.944 88.4773L312.416 72.221C314.193 71.571 315.637 70.2866 316.445 68.6381C317.253 66.9896 317.362 65.1054 316.748 63.3818L303.993 26.0919C303.721 25.2492 303.275 24.4675 302.682 23.7935C302.088 23.1195 301.358 22.5669 300.536 22.1687C299.714 21.7705 298.817 21.5349 297.898 21.476C296.979 21.417 296.057 21.5359 295.187 21.8256ZM259.002 27.7865C258.029 25.0387 258.203 22.0367 259.49 19.4096C260.777 16.7824 263.076 14.7339 265.905 13.6931C267.302 13.2355 268.781 13.052 270.254 13.1536C271.726 13.2551 273.163 13.6396 274.477 14.2842C275.791 14.9287 276.956 15.8201 277.902 16.9051C278.849 17.9901 279.557 19.2465 279.985 20.5993L281.942 26.3303L260.959 33.5175L259.002 27.7865ZM285.687 60.8782L288.943 70.3986C289.002 70.5895 288.983 70.7951 288.889 70.9727C288.794 71.1504 288.632 71.2863 288.436 71.3524L283.873 72.9107C283.691 72.9589 283.497 72.938 283.331 72.8523C283.165 72.7665 283.041 72.6227 282.983 72.4509L279.701 62.973C277.891 62.8786 276.155 62.2571 274.724 61.1918C273.293 60.1265 272.236 58.6682 271.695 57.0121C270.922 54.8227 271.063 52.4316 272.089 50.3395C273.116 48.2475 274.947 46.6166 277.201 45.7885C278.314 45.4245 279.492 45.2787 280.665 45.3598C281.838 45.4409 282.982 45.7473 284.029 46.2606C285.076 46.7739 286.004 47.4838 286.758 48.3478C287.512 49.2118 288.076 50.2122 288.418 51.2896C288.99 52.9719 289.038 54.7775 288.554 56.4851C288.071 58.1928 287.077 59.7283 285.696 60.9037L285.687 60.8782Z" fill="#0E40D7"/>
<path d="M290.401 23.2903C290.401 23.4095 281.907 26.4666 271.34 30.1028C260.772 33.7389 252.153 36.6598 252.109 36.5746C252.064 36.4895 260.603 33.4068 271.18 29.7621C281.756 26.1174 290.357 23.1796 290.401 23.2903Z" fill="#263238"/>
<path d="M300.488 24.8571C300.528 24.931 300.56 25.0079 300.586 25.087C300.657 25.2573 300.737 25.4788 300.844 25.7513C301.075 26.3729 301.396 27.233 301.796 28.3059L305.212 37.8264C306.635 41.8628 308.334 46.6486 310.219 51.9623C311.109 54.6277 312.158 57.4038 313.137 60.3246C313.661 61.8298 313.887 63.4152 313.804 64.9997C313.729 65.8238 313.484 66.6254 313.084 67.3585C312.656 68.0892 312.085 68.734 311.402 69.2575C310.028 70.2179 308.503 70.9624 306.884 71.4631L302.303 73.0385L293.63 76.0104L278.945 81.0176L269.027 84.3557L266.359 85.2073L265.647 85.4287C265.571 85.4611 265.49 85.4812 265.407 85.4883C265.407 85.4883 265.478 85.4883 265.629 85.3861L266.323 85.1221L268.991 84.1599L278.856 80.6855L293.515 75.5761L302.169 72.5786L306.75 70.9947C308.323 70.5144 309.804 69.7925 311.136 68.8573C311.771 68.3715 312.302 67.773 312.701 67.0946C313.078 66.4165 313.305 65.6716 313.368 64.906C313.45 63.3794 313.233 61.8515 312.728 60.4013C311.767 57.506 310.753 54.7043 309.837 52.039C307.987 46.7167 306.279 41.9139 304.927 37.8775C303.575 33.8411 302.436 30.5966 301.654 28.3145C301.28 27.1989 300.995 26.3303 300.764 25.7002L300.551 25.0189C300.524 24.9673 300.503 24.9131 300.488 24.8571Z" fill="#263238"/>
<path d="M275.44 13.1141C275.44 13.1141 274.969 12.8927 274.097 12.5521C272.854 12.095 271.54 11.8417 270.21 11.8027C268.238 11.7379 266.275 12.0928 264.464 12.8416C262.261 13.774 260.377 15.2822 259.029 17.1931C257.672 19.0984 256.944 21.3502 256.939 23.6564C256.957 25.5466 257.257 27.4247 257.828 29.2341C258.291 30.784 258.771 32.0187 259.091 32.8788C259.28 33.3157 259.435 33.7654 259.554 34.2243C259.301 33.8158 259.09 33.3853 258.922 32.9384C258.558 32.0869 258.033 30.8777 257.517 29.3193C256.884 27.4909 256.539 25.5822 256.494 23.6564C256.47 21.263 257.215 18.9205 258.629 16.9461C260.024 14.9655 261.985 13.4106 264.277 12.4669C266.145 11.714 268.169 11.3818 270.192 11.4961C271.551 11.5624 272.887 11.8654 274.133 12.3903C274.466 12.5374 274.787 12.7082 275.093 12.9012C275.22 12.9544 275.337 13.0262 275.44 13.1141Z" fill="#263238"/>
<path d="M275.849 46.4357C275.991 46.3533 276.14 46.2821 276.294 46.2228C276.739 46.0304 277.201 45.8738 277.673 45.7544C278.423 45.5426 279.196 45.4168 279.977 45.3797C281.039 45.3251 282.101 45.4787 283.099 45.8311C285.376 46.5975 287.466 48.82 288.498 51.792C288.993 53.3869 288.993 55.0851 288.498 56.68C287.949 58.411 286.966 59.9869 285.634 61.2699L285.687 61.04C286.87 64.1481 288.16 67.5203 289.494 71.0373L289.574 71.2502L289.352 71.3268L287.315 71.974L282.867 73.3961L282.645 73.4642L282.574 73.2513C281.355 69.7259 280.021 66.4388 279.016 63.2114L279.212 63.3562C277.473 63.2179 275.815 62.5931 274.444 61.5594C273.204 60.6449 272.187 59.4825 271.464 58.1532C270.812 56.9743 270.487 55.6547 270.521 54.3211C270.562 52.9582 270.918 51.6208 271.562 50.4047C272.207 49.1887 273.124 48.1241 274.248 47.2872C274.711 46.9275 275.231 46.6401 275.787 46.4357C275.285 46.7211 274.798 47.0309 274.328 47.3639C273.093 48.3643 272.147 49.6515 271.58 51.1022C271.093 52.1962 270.866 53.3797 270.913 54.5679C270.961 55.756 271.283 56.9193 271.856 57.9743C272.566 59.2532 273.559 60.3689 274.764 61.2443C276.072 62.2268 277.653 62.8191 279.31 62.9474H279.461L279.505 63.0752C280.484 66.243 281.827 69.5556 283.063 73.0981L282.77 72.9618L287.217 71.5397L289.245 70.884L289.103 71.1735C287.777 67.6566 286.497 64.2759 285.322 61.1677V61.04L285.429 60.9378C286.722 59.708 287.687 58.1978 288.24 56.5352C288.712 55.0096 288.712 53.3857 288.24 51.8601C287.27 48.9989 285.269 46.8274 283.099 46.061C282.138 45.7063 281.112 45.5412 280.083 45.5756C279.315 45.5924 278.551 45.6924 277.806 45.8736C276.481 46.1887 275.858 46.4783 275.849 46.4357Z" fill="#263238"/>
<path d="M248.355 292.316L159.504 291.924C154.373 291.897 149.463 289.921 145.852 286.431C142.241 282.941 140.225 278.221 140.246 273.309L141.189 60.0692C141.2 57.6355 141.711 55.2276 142.694 52.9832C143.677 50.7388 145.113 48.7019 146.918 46.9889C148.724 45.2759 150.865 43.9204 153.218 43C155.572 42.0795 158.091 41.6121 160.633 41.6244L249.476 42.0161C254.607 42.0409 259.518 44.0143 263.13 47.503C266.743 50.9917 268.761 55.7104 268.742 60.6227L267.799 273.854C267.789 276.288 267.278 278.697 266.295 280.942C265.312 283.188 263.877 285.226 262.071 286.94C260.266 288.654 258.125 290.011 255.772 290.934C253.418 291.856 250.898 292.326 248.355 292.316Z" fill="#455A64"/>
<path d="M249.342 49.348H232.122C231.56 49.358 231.006 49.4738 230.491 49.6889C229.975 49.904 229.51 50.2142 229.12 50.6017C228.73 50.9892 228.424 51.4464 228.218 51.9472C228.013 52.4481 227.913 52.9827 227.924 53.5206V56.5096C227.934 57.0471 227.834 57.5814 227.628 58.0817C227.423 58.5821 227.117 59.0387 226.727 59.4255C226.337 59.8123 225.871 60.1217 225.356 60.3359C224.841 60.5501 224.287 60.6649 223.725 60.6738L190.156 60.529C189.02 60.5 187.943 60.0407 187.161 59.252C186.379 58.4632 185.955 57.4095 185.984 56.3223V53.3333C186.013 52.2475 185.591 51.195 184.81 50.4065C184.03 49.618 182.955 49.1578 181.821 49.1266H175.764L160.687 49.0585C157.101 49.038 153.652 50.3788 151.097 52.7872C148.541 55.1956 147.086 58.4755 147.051 61.9085L146.161 270.047C146.153 271.75 146.495 273.438 147.169 275.015C147.842 276.591 148.833 278.025 150.085 279.235C151.337 280.445 152.826 281.407 154.467 282.066C156.107 282.725 157.867 283.068 159.646 283.076L248.311 283.468C250.091 283.476 251.855 283.148 253.503 282.503C255.151 281.858 256.65 280.908 257.914 279.709C259.179 278.509 260.184 277.083 260.873 275.511C261.562 273.94 261.921 272.254 261.929 270.55L262.818 62.4109C262.84 58.9682 261.432 55.6583 258.905 53.2087C256.378 50.7592 252.939 49.3705 249.342 49.348Z" fill="white"/>
<path d="M237.414 255.698L171.485 255.426C170.8 255.426 170.249 254.711 170.258 253.842L170.329 237.33C170.329 236.479 170.889 235.746 171.574 235.746L237.503 236.036C237.883 236.099 238.222 236.299 238.451 236.596C238.68 236.893 238.78 237.262 238.731 237.628L238.669 254.123C238.669 255 238.099 255.707 237.414 255.698Z" fill="#0E40D7"/>
<path d="M193.332 244.217C193.297 243.924 193.157 243.697 192.91 243.536C192.664 243.374 192.362 243.293 192.004 243.293C191.742 243.293 191.513 243.335 191.316 243.42C191.122 243.505 190.97 243.621 190.86 243.769C190.752 243.918 190.699 244.086 190.699 244.275C190.699 244.433 190.736 244.568 190.811 244.682C190.888 244.794 190.986 244.887 191.106 244.962C191.225 245.035 191.35 245.096 191.481 245.144C191.612 245.19 191.732 245.228 191.842 245.256L192.443 245.418C192.597 245.459 192.768 245.514 192.957 245.586C193.147 245.657 193.329 245.754 193.502 245.877C193.678 245.999 193.822 246.155 193.935 246.345C194.049 246.536 194.106 246.77 194.106 247.047C194.106 247.366 194.022 247.655 193.855 247.913C193.689 248.171 193.447 248.376 193.127 248.528C192.809 248.68 192.423 248.756 191.969 248.756C191.546 248.756 191.179 248.688 190.869 248.551C190.561 248.414 190.318 248.224 190.141 247.979C189.966 247.735 189.867 247.451 189.844 247.128H190.583C190.602 247.351 190.677 247.536 190.808 247.682C190.941 247.826 191.109 247.934 191.311 248.005C191.515 248.075 191.734 248.109 191.969 248.109C192.242 248.109 192.488 248.065 192.705 247.977C192.923 247.886 193.095 247.761 193.222 247.601C193.349 247.439 193.413 247.251 193.413 247.035C193.413 246.839 193.358 246.679 193.248 246.556C193.139 246.433 192.994 246.333 192.815 246.256C192.636 246.179 192.443 246.111 192.235 246.053L191.507 245.846C191.045 245.713 190.679 245.523 190.41 245.277C190.14 245.03 190.006 244.708 190.006 244.309C190.006 243.978 190.095 243.69 190.274 243.443C190.455 243.195 190.698 243.002 191.002 242.866C191.308 242.727 191.65 242.658 192.027 242.658C192.408 242.658 192.747 242.726 193.043 242.863C193.34 242.997 193.575 243.182 193.748 243.417C193.923 243.652 194.015 243.919 194.025 244.217H193.332ZM195.999 242.739V248.652H195.283V242.739H195.999ZM202.125 242.739V248.652H201.432L198.209 244.009H198.151V248.652H197.435V242.739H198.128L201.362 247.393H201.42V242.739H202.125ZM207.6 244.587C207.536 244.392 207.453 244.218 207.349 244.064C207.247 243.908 207.125 243.775 206.982 243.665C206.842 243.556 206.682 243.472 206.503 243.414C206.324 243.356 206.127 243.328 205.914 243.328C205.563 243.328 205.245 243.418 204.958 243.599C204.671 243.78 204.443 244.047 204.274 244.399C204.104 244.751 204.019 245.183 204.019 245.695C204.019 246.207 204.105 246.64 204.276 246.992C204.448 247.344 204.68 247.611 204.972 247.792C205.265 247.973 205.594 248.063 205.96 248.063C206.299 248.063 206.597 247.991 206.855 247.847C207.115 247.7 207.317 247.494 207.461 247.229C207.608 246.961 207.681 246.646 207.681 246.284L207.9 246.331H206.122V245.695H208.374V246.331C208.374 246.818 208.27 247.241 208.062 247.601C207.856 247.961 207.571 248.24 207.207 248.439C206.845 248.635 206.43 248.733 205.96 248.733C205.436 248.733 204.976 248.61 204.58 248.363C204.185 248.117 203.877 247.767 203.656 247.312C203.436 246.858 203.326 246.319 203.326 245.695C203.326 245.228 203.389 244.807 203.514 244.434C203.641 244.058 203.82 243.739 204.051 243.475C204.282 243.211 204.556 243.009 204.871 242.868C205.187 242.728 205.534 242.658 205.914 242.658C206.226 242.658 206.516 242.705 206.786 242.799C207.057 242.892 207.299 243.023 207.51 243.195C207.724 243.364 207.902 243.567 208.045 243.804C208.187 244.039 208.285 244.3 208.339 244.587H207.6ZM193.979 252.739H194.695V256.654C194.695 257.058 194.6 257.419 194.409 257.737C194.22 258.053 193.954 258.302 193.609 258.485C193.265 258.666 192.86 258.756 192.396 258.756C191.932 258.756 191.528 258.666 191.184 258.485C190.839 258.302 190.571 258.053 190.381 257.737C190.192 257.419 190.098 257.058 190.098 256.654V252.739H190.814V256.596C190.814 256.885 190.878 257.142 191.005 257.367C191.132 257.591 191.313 257.767 191.547 257.896C191.784 258.023 192.067 258.086 192.396 258.086C192.726 258.086 193.009 258.023 193.245 257.896C193.482 257.767 193.663 257.591 193.788 257.367C193.915 257.142 193.979 256.885 193.979 256.596V252.739ZM196.125 258.652V252.739H198.123C198.587 252.739 198.966 252.822 199.261 252.99C199.557 253.155 199.777 253.38 199.919 253.663C200.062 253.946 200.133 254.261 200.133 254.61C200.133 254.958 200.062 255.275 199.919 255.56C199.779 255.845 199.561 256.072 199.267 256.241C198.972 256.409 198.595 256.492 198.135 256.492H196.702V255.857H198.112C198.429 255.857 198.684 255.802 198.877 255.693C199.069 255.583 199.209 255.435 199.295 255.248C199.384 255.059 199.428 254.846 199.428 254.61C199.428 254.373 199.384 254.161 199.295 253.974C199.209 253.788 199.068 253.641 198.874 253.536C198.679 253.428 198.421 253.374 198.1 253.374H196.841V258.652H196.125Z" fill="#E8E8E3"/>
<path d="M184.636 110.533L161.758 110.434L161.739 114.453L184.617 114.552L184.636 110.533Z" fill="#0E40D7"/>
<path opacity="0.1" d="M184.636 110.533L161.758 110.434L161.739 114.453L184.617 114.552L184.636 110.533Z" fill="black"/>
<path d="M251.7 135.211C251.879 135.194 252.056 135.153 252.225 135.092C252.471 135 252.685 134.843 252.842 134.639C252.999 134.436 253.094 134.194 253.114 133.942C253.114 132.588 253.114 130.612 253.114 128.075C253.114 126.806 253.114 125.384 253.114 123.817C253.114 123.434 253.114 123.034 253.114 122.633C253.172 122.245 253.084 121.85 252.865 121.518C252.742 121.359 252.583 121.229 252.4 121.139C252.216 121.049 252.013 121.001 251.806 120.998H250.419H237.566L163.169 120.734C162.978 120.731 162.79 120.772 162.619 120.854C162.449 120.935 162.302 121.055 162.19 121.203C161.975 121.536 161.893 121.932 161.959 122.318C161.959 123.17 161.959 124.021 161.959 124.873C161.959 126.576 161.959 128.279 161.959 129.982C161.959 130.834 161.959 131.685 161.959 132.537C161.922 132.934 161.922 133.333 161.959 133.729C162.006 133.899 162.092 134.057 162.213 134.19C162.333 134.322 162.483 134.427 162.653 134.496C162.828 134.562 163.016 134.594 163.204 134.589H167.732L187.487 134.691L220.932 134.887L243.481 135.058L249.609 135.126H251.202C251.566 135.126 251.744 135.126 251.744 135.126H251.202H249.609H243.481H220.932L187.487 135.024L167.732 134.947H163.204C162.955 134.957 162.706 134.916 162.475 134.828C162.241 134.732 162.032 134.586 161.866 134.402C161.699 134.217 161.579 133.999 161.514 133.763C161.463 133.54 161.445 133.31 161.461 133.082V132.452C161.461 131.6 161.461 130.749 161.461 129.897C161.461 128.194 161.461 126.491 161.461 124.788C161.461 123.936 161.461 123.085 161.461 122.233C161.444 122.006 161.444 121.779 161.461 121.552C161.494 121.301 161.595 121.064 161.754 120.862C161.908 120.657 162.111 120.49 162.346 120.375C162.582 120.261 162.842 120.203 163.106 120.206L237.503 120.598L250.357 120.683H251.744C251.989 120.683 252.229 120.74 252.446 120.848C252.663 120.956 252.849 121.113 252.989 121.305C253.24 121.675 253.341 122.12 253.274 122.557C253.274 122.957 253.274 123.357 253.274 123.74C253.274 125.29 253.274 126.712 253.274 127.998C253.274 130.553 253.212 132.511 253.194 133.874C253.172 134.136 253.073 134.387 252.907 134.596C252.742 134.806 252.517 134.966 252.26 135.058C252.092 135.158 251.898 135.211 251.7 135.211Z" fill="#E0E0E0"/>
<path d="M210.472 125.009H168.63V128.765H210.472V125.009Z" fill="#0E40D7"/>
<path opacity="0.2" d="M210.472 125.009H168.63V128.765H210.472V125.009Z" fill="white"/>
<path d="M184.48 147.2L161.602 147.101L161.583 151.12L184.461 151.219L184.48 147.2Z" fill="#0E40D7"/>
<path opacity="0.1" d="M184.48 147.2L161.602 147.101L161.583 151.12L184.461 151.219L184.48 147.2Z" fill="black"/>
<path d="M251.121 171.879C251.301 171.858 251.479 171.827 251.655 171.785C251.904 171.71 252.132 171.584 252.326 171.416C252.519 171.249 252.672 171.044 252.776 170.815C252.916 170.471 252.971 170.101 252.936 169.733C252.936 169.324 252.936 168.882 252.936 168.388C252.936 167.4 252.936 166.276 252.936 164.981V159.574C252.979 159.183 252.888 158.788 252.678 158.45C252.459 158.103 252.114 157.845 251.709 157.726C251.266 157.65 250.814 157.628 250.365 157.658H237.566L163.426 157.394C163.028 157.395 162.643 157.534 162.343 157.787C162.044 158.039 161.85 158.387 161.799 158.765C161.799 159.574 161.799 160.468 161.799 161.32C161.799 163.023 161.799 164.726 161.799 166.429C161.799 167.281 161.799 168.132 161.799 168.984C161.766 169.382 161.783 169.782 161.852 170.176C161.963 170.521 162.192 170.821 162.501 171.028C162.83 171.227 163.216 171.323 163.604 171.3H164.841H167.411L187.096 171.394L220.425 171.59L242.894 171.76L249.004 171.828H250.597H251.13H250.597H249.004H242.894H220.425L187.078 171.794L167.394 171.726H163.524C163.043 171.753 162.566 171.631 162.163 171.377C161.759 171.108 161.463 170.714 161.327 170.261C161.248 169.828 161.224 169.388 161.256 168.95C161.256 168.098 161.256 167.247 161.256 166.395C161.256 164.692 161.256 162.989 161.256 161.286C161.256 160.434 161.256 159.583 161.256 158.731C161.321 158.244 161.569 157.796 161.954 157.472C162.339 157.148 162.834 156.968 163.346 156.968L237.486 157.36L250.285 157.454C250.762 157.426 251.24 157.457 251.709 157.547C252.171 157.692 252.56 157.995 252.803 158.399C253.033 158.774 253.132 159.209 253.087 159.642C253.087 160.042 253.087 160.434 253.087 160.826C253.087 162.367 253.087 163.781 253.087 165.084C253.087 166.387 253.087 167.485 253.087 168.49C253.087 168.975 253.087 169.427 253.087 169.844C253.12 170.225 253.056 170.607 252.9 170.959C252.785 171.194 252.618 171.403 252.411 171.57C252.204 171.738 251.961 171.861 251.7 171.93C251.505 171.946 251.31 171.928 251.121 171.879Z" fill="#E0E0E0"/>
<path d="M184.307 185.46L161.43 185.36L161.411 189.38L184.288 189.479L184.307 185.46Z" fill="#0E40D7"/>
<path opacity="0.1" d="M184.307 185.46L161.43 185.36L161.411 189.38L184.288 189.479L184.307 185.46Z" fill="black"/>
<path d="M250.944 210.123C251.123 210.103 251.302 210.071 251.477 210.029C251.725 209.954 251.953 209.829 252.146 209.663C252.339 209.497 252.493 209.294 252.598 209.067C252.738 208.723 252.792 208.353 252.758 207.985C252.758 207.568 252.758 207.134 252.758 206.631C252.758 205.652 252.758 204.52 252.758 203.225V197.818C252.801 197.426 252.71 197.032 252.5 196.694C252.276 196.353 251.932 196.1 251.531 195.978C251.088 195.9 250.637 195.874 250.188 195.902H237.388L163.249 195.638C162.85 195.639 162.465 195.778 162.166 196.03C161.866 196.283 161.673 196.63 161.621 197.009C161.621 197.86 161.621 198.712 161.621 199.563C161.621 201.267 161.621 202.97 161.621 204.673C161.621 205.524 161.621 206.376 161.621 207.228C161.588 207.623 161.606 208.02 161.674 208.411C161.781 208.759 162.01 209.06 162.324 209.263C162.65 209.467 163.038 209.563 163.427 209.535H167.296L186.98 209.637L220.31 209.833L242.778 210.004L248.889 210.072H250.481C250.837 210.072 251.015 210.072 251.015 210.072C251.015 210.072 250.837 210.072 250.481 210.072H248.889H242.778H220.31L186.98 209.978L167.296 209.901H163.427C162.945 209.933 162.466 209.81 162.066 209.552C161.661 209.284 161.365 208.89 161.229 208.437C161.15 208.004 161.126 207.564 161.158 207.125C161.158 206.274 161.158 205.422 161.158 204.571C161.158 202.868 161.158 201.164 161.158 199.461C161.158 198.61 161.158 197.758 161.158 196.864C161.221 196.378 161.467 195.93 161.851 195.606C162.234 195.281 162.728 195.102 163.24 195.101L237.379 195.493L250.179 195.587C250.655 195.559 251.134 195.59 251.602 195.68C252.064 195.825 252.454 196.128 252.696 196.532C252.926 196.907 253.026 197.342 252.981 197.775C252.981 198.175 252.981 198.576 252.981 198.959C252.981 200.5 252.981 201.914 252.981 203.217C252.981 204.52 252.981 205.618 252.981 206.623C252.981 207.108 252.981 207.56 252.981 207.977C253.015 208.358 252.951 208.741 252.794 209.092C252.678 209.327 252.511 209.536 252.304 209.703C252.097 209.871 251.854 209.994 251.593 210.063C251.384 210.132 251.162 210.152 250.944 210.123Z" fill="#E0E0E0"/>
<path d="M209.578 162.739L167.737 162.557L167.719 166.313L209.561 166.495L209.578 162.739Z" fill="#0E40D7"/>
<path opacity="0.2" d="M209.578 162.739L167.737 162.557L167.719 166.313L209.561 166.495L209.578 162.739Z" fill="white"/>
<path d="M171.521 203.174C171.495 203.517 171.364 203.844 171.145 204.116C170.926 204.388 170.628 204.593 170.289 204.705C169.95 204.816 169.584 204.83 169.236 204.744C168.889 204.659 168.576 204.477 168.335 204.223C168.094 203.968 167.937 203.651 167.882 203.312C167.828 202.972 167.879 202.625 168.029 202.313C168.178 202.001 168.421 201.738 168.725 201.556C169.03 201.375 169.383 201.283 169.742 201.292C170.237 201.318 170.702 201.531 171.035 201.883C171.368 202.236 171.543 202.699 171.521 203.174Z" fill="#0E40D7"/>
<path d="M177.187 203.2C177.204 203.44 177.17 203.681 177.086 203.908C177.002 204.134 176.87 204.342 176.699 204.518C176.528 204.694 176.32 204.835 176.09 204.931C175.859 205.027 175.61 205.076 175.359 205.076C175.108 205.076 174.859 205.027 174.628 204.931C174.398 204.835 174.19 204.694 174.019 204.518C173.847 204.342 173.716 204.134 173.632 203.908C173.548 203.681 173.514 203.44 173.531 203.2C173.514 202.96 173.548 202.719 173.632 202.492C173.716 202.265 173.847 202.057 174.019 201.881C174.19 201.705 174.398 201.565 174.628 201.469C174.859 201.373 175.108 201.323 175.359 201.323C175.61 201.323 175.859 201.373 176.09 201.469C176.32 201.565 176.528 201.705 176.699 201.881C176.87 202.057 177.002 202.265 177.086 202.492C177.17 202.719 177.204 202.96 177.187 203.2Z" fill="#0E40D7"/>
<path d="M182.862 203.225C182.836 203.568 182.705 203.895 182.486 204.167C182.267 204.439 181.969 204.644 181.63 204.756C181.291 204.867 180.925 204.881 180.577 204.796C180.23 204.71 179.916 204.529 179.676 204.274C179.435 204.019 179.278 203.702 179.223 203.363C179.169 203.023 179.22 202.676 179.369 202.364C179.519 202.052 179.762 201.789 180.066 201.607C180.371 201.426 180.724 201.334 181.083 201.343C181.578 201.372 182.041 201.585 182.373 201.937C182.706 202.288 182.881 202.751 182.862 203.225Z" fill="#0E40D7"/>
<path d="M188.528 203.251C188.502 203.593 188.371 203.921 188.152 204.193C187.933 204.465 187.635 204.669 187.296 204.781C186.957 204.893 186.591 204.907 186.243 204.821C185.896 204.735 185.583 204.554 185.342 204.299C185.101 204.045 184.944 203.728 184.889 203.389C184.835 203.049 184.886 202.702 185.035 202.39C185.185 202.078 185.428 201.814 185.732 201.633C186.037 201.451 186.39 201.36 186.749 201.369C187.244 201.397 187.707 201.61 188.039 201.962C188.372 202.314 188.547 202.777 188.528 203.251Z" fill="#0E40D7"/>
<path d="M194.194 203.268C194.169 203.611 194.04 203.939 193.822 204.213C193.604 204.486 193.307 204.692 192.968 204.805C192.629 204.918 192.262 204.933 191.914 204.848C191.566 204.763 191.252 204.582 191.01 204.328C190.768 204.074 190.61 203.757 190.555 203.417C190.5 203.077 190.55 202.729 190.7 202.417C190.85 202.104 191.092 201.841 191.397 201.659C191.702 201.477 192.056 201.385 192.415 201.394C192.908 201.423 193.37 201.635 193.702 201.985C194.035 202.335 194.211 202.795 194.194 203.268Z" fill="#0E40D7"/>
<path d="M199.869 203.293C199.845 203.635 199.717 203.962 199.501 204.234C199.285 204.507 198.99 204.713 198.654 204.827C198.317 204.942 197.953 204.959 197.606 204.878C197.258 204.797 196.944 204.62 196.7 204.37C196.457 204.12 196.295 203.807 196.235 203.47C196.174 203.132 196.218 202.786 196.361 202.472C196.504 202.159 196.74 201.892 197.039 201.705C197.338 201.518 197.688 201.419 198.045 201.42C198.546 201.438 199.02 201.645 199.361 201.996C199.703 202.347 199.886 202.814 199.869 203.293Z" fill="#0E40D7"/>
<path d="M205.535 203.319C205.553 203.559 205.518 203.8 205.434 204.027C205.35 204.253 205.219 204.461 205.047 204.637C204.876 204.813 204.668 204.954 204.438 205.05C204.207 205.146 203.958 205.195 203.707 205.195C203.456 205.195 203.207 205.146 202.976 205.05C202.746 204.954 202.539 204.813 202.367 204.637C202.196 204.461 202.064 204.253 201.98 204.027C201.896 203.8 201.862 203.559 201.879 203.319C201.862 203.079 201.896 202.838 201.98 202.611C202.064 202.384 202.196 202.176 202.367 202C202.539 201.824 202.746 201.684 202.976 201.588C203.207 201.492 203.456 201.442 203.707 201.442C203.958 201.442 204.207 201.492 204.438 201.588C204.668 201.684 204.876 201.824 205.047 202C205.219 202.176 205.35 202.384 205.434 202.611C205.518 202.838 205.553 203.079 205.535 203.319Z" fill="#0E40D7"/>
<path d="M211.201 203.344C211.177 203.686 211.049 204.013 210.833 204.285C210.617 204.558 210.323 204.764 209.986 204.878C209.649 204.993 209.285 205.01 208.938 204.929C208.591 204.848 208.276 204.671 208.032 204.421C207.789 204.171 207.627 203.858 207.567 203.521C207.507 203.184 207.551 202.837 207.694 202.523C207.837 202.21 208.072 201.943 208.371 201.756C208.671 201.569 209.02 201.47 209.378 201.471C209.879 201.489 210.352 201.696 210.694 202.047C211.035 202.398 211.218 202.865 211.201 203.344Z" fill="#0E40D7"/>
<path d="M216.867 203.37C216.843 203.713 216.713 204.042 216.495 204.315C216.277 204.588 215.98 204.794 215.641 204.907C215.302 205.02 214.935 205.035 214.587 204.95C214.239 204.865 213.925 204.684 213.683 204.43C213.442 204.176 213.284 203.859 213.228 203.519C213.173 203.179 213.224 202.832 213.374 202.519C213.523 202.206 213.766 201.943 214.07 201.761C214.375 201.579 214.729 201.487 215.088 201.496C215.581 201.525 216.043 201.737 216.376 202.087C216.708 202.437 216.884 202.897 216.867 203.37Z" fill="#0E40D7"/>
<g opacity="0.2">
<path d="M171.521 203.174C171.495 203.517 171.364 203.844 171.145 204.116C170.926 204.388 170.628 204.593 170.289 204.705C169.95 204.816 169.584 204.83 169.236 204.744C168.889 204.659 168.576 204.477 168.335 204.223C168.094 203.968 167.937 203.651 167.882 203.312C167.828 202.972 167.879 202.625 168.029 202.313C168.178 202.001 168.421 201.738 168.725 201.556C169.03 201.375 169.383 201.283 169.742 201.292C170.237 201.318 170.702 201.531 171.035 201.883C171.368 202.236 171.543 202.699 171.521 203.174Z" fill="white"/>
<path d="M177.187 203.2C177.204 203.44 177.17 203.681 177.086 203.907C177.002 204.134 176.871 204.342 176.699 204.518C176.528 204.694 176.32 204.834 176.09 204.93C175.859 205.026 175.61 205.076 175.359 205.076C175.108 205.076 174.859 205.026 174.628 204.93C174.398 204.834 174.191 204.694 174.019 204.518C173.848 204.342 173.716 204.134 173.632 203.907C173.548 203.681 173.514 203.44 173.531 203.2C173.514 202.959 173.548 202.718 173.632 202.492C173.716 202.265 173.848 202.057 174.019 201.881C174.191 201.705 174.398 201.565 174.628 201.469C174.859 201.373 175.108 201.323 175.359 201.323C175.61 201.323 175.859 201.373 176.09 201.469C176.32 201.565 176.528 201.705 176.699 201.881C176.871 202.057 177.002 202.265 177.086 202.492C177.17 202.718 177.204 202.959 177.187 203.2Z" fill="white"/>
<path d="M182.862 203.225C182.836 203.568 182.705 203.895 182.486 204.168C182.267 204.44 181.97 204.644 181.63 204.756C181.291 204.868 180.925 204.881 180.578 204.796C180.23 204.71 179.917 204.529 179.676 204.274C179.435 204.019 179.278 203.703 179.223 203.363C179.169 203.024 179.22 202.676 179.37 202.364C179.519 202.052 179.762 201.789 180.066 201.608C180.371 201.426 180.724 201.334 181.083 201.343C181.578 201.372 182.041 201.585 182.374 201.937C182.706 202.289 182.881 202.751 182.862 203.225Z" fill="white"/>
<path d="M188.528 203.251C188.502 203.593 188.371 203.921 188.152 204.193C187.933 204.465 187.636 204.67 187.296 204.781C186.957 204.893 186.591 204.907 186.244 204.821C185.896 204.736 185.583 204.554 185.342 204.3C185.101 204.045 184.944 203.728 184.89 203.389C184.835 203.049 184.886 202.702 185.036 202.39C185.186 202.078 185.428 201.815 185.732 201.633C186.037 201.452 186.39 201.36 186.749 201.369C187.244 201.397 187.707 201.61 188.04 201.962C188.372 202.314 188.548 202.777 188.528 203.251Z" fill="white"/>
<path d="M194.194 203.268C194.17 203.611 194.04 203.939 193.822 204.213C193.604 204.486 193.307 204.692 192.968 204.805C192.629 204.918 192.262 204.933 191.914 204.848C191.566 204.763 191.252 204.582 191.01 204.328C190.769 204.073 190.61 203.757 190.555 203.417C190.5 203.077 190.551 202.729 190.7 202.417C190.85 202.104 191.092 201.841 191.397 201.659C191.702 201.477 192.056 201.385 192.415 201.394C192.908 201.423 193.37 201.635 193.703 201.985C194.035 202.335 194.211 202.795 194.194 203.268Z" fill="white"/>
<path d="M199.869 203.293C199.845 203.635 199.717 203.962 199.501 204.234C199.285 204.507 198.991 204.713 198.654 204.827C198.317 204.942 197.953 204.959 197.606 204.878C197.259 204.797 196.944 204.62 196.7 204.37C196.457 204.12 196.295 203.807 196.235 203.47C196.175 203.132 196.219 202.786 196.362 202.472C196.505 202.159 196.74 201.892 197.039 201.705C197.339 201.518 197.688 201.419 198.046 201.42C198.547 201.438 199.02 201.645 199.362 201.996C199.703 202.347 199.886 202.814 199.869 203.293Z" fill="white"/>
<path d="M205.535 203.319C205.553 203.559 205.518 203.8 205.434 204.027C205.35 204.253 205.219 204.461 205.047 204.637C204.876 204.813 204.668 204.954 204.438 205.05C204.207 205.146 203.959 205.195 203.707 205.195C203.456 205.195 203.207 205.146 202.977 205.05C202.746 204.954 202.539 204.813 202.367 204.637C202.196 204.461 202.064 204.253 201.98 204.027C201.896 203.8 201.862 203.559 201.879 203.319C201.862 203.079 201.896 202.838 201.98 202.611C202.064 202.384 202.196 202.176 202.367 202C202.539 201.824 202.746 201.684 202.977 201.588C203.207 201.492 203.456 201.442 203.707 201.442C203.959 201.442 204.207 201.492 204.438 201.588C204.668 201.684 204.876 201.824 205.047 202C205.219 202.176 205.35 202.384 205.434 202.611C205.518 202.838 205.553 203.079 205.535 203.319Z" fill="white"/>
<path d="M211.201 203.344C211.177 203.686 211.049 204.013 210.833 204.285C210.617 204.558 210.323 204.764 209.986 204.878C209.649 204.993 209.285 205.01 208.938 204.929C208.591 204.848 208.276 204.671 208.032 204.421C207.789 204.171 207.627 203.858 207.567 203.521C207.507 203.184 207.551 202.837 207.694 202.523C207.837 202.21 208.072 201.943 208.371 201.756C208.671 201.569 209.02 201.47 209.378 201.471C209.879 201.489 210.352 201.696 210.694 202.047C211.035 202.398 211.218 202.865 211.201 203.344Z" fill="white"/>
<path d="M216.867 203.37C216.843 203.713 216.713 204.042 216.495 204.315C216.277 204.588 215.98 204.794 215.641 204.907C215.302 205.02 214.935 205.035 214.587 204.95C214.239 204.865 213.925 204.684 213.683 204.43C213.442 204.176 213.284 203.859 213.228 203.519C213.173 203.179 213.224 202.832 213.374 202.519C213.523 202.206 213.766 201.943 214.07 201.761C214.375 201.579 214.729 201.487 215.088 201.496C215.581 201.525 216.043 201.737 216.376 202.087C216.708 202.437 216.884 202.897 216.867 203.37Z" fill="white"/>
</g>
<path d="M208.817 80.4385C209.435 80.178 209.959 79.7493 210.325 79.2057C210.69 78.6622 210.88 78.0277 210.872 77.3814C210.895 76.9613 210.828 76.541 210.676 76.1463C210.524 75.7515 210.29 75.3906 209.987 75.0854C209.685 74.7802 209.321 74.5372 208.917 74.3711C208.513 74.205 208.078 74.1193 207.639 74.1193C207.199 74.1193 206.764 74.205 206.361 74.3711C205.957 74.5372 205.593 74.7802 205.29 75.0854C204.988 75.3906 204.753 75.7515 204.601 76.1463C204.449 76.541 204.382 76.9613 204.405 77.3814C204.392 78.0342 204.581 78.6762 204.948 79.2264C205.315 79.7765 205.844 80.2102 206.469 80.4726C201.488 81.1879 201.71 86.3654 201.71 86.3654L213.487 86.4165C213.487 86.4165 213.763 81.1453 208.817 80.4385Z" fill="#0E40D7"/>
<path opacity="0.1" d="M208.817 80.4385C209.435 80.178 209.959 79.7493 210.325 79.2057C210.69 78.6622 210.88 78.0277 210.872 77.3814C210.895 76.9613 210.828 76.541 210.676 76.1463C210.524 75.7515 210.29 75.3906 209.987 75.0854C209.685 74.7802 209.321 74.5372 208.917 74.3711C208.513 74.205 208.078 74.1193 207.639 74.1193C207.199 74.1193 206.764 74.205 206.361 74.3711C205.957 74.5372 205.593 74.7802 205.29 75.0854C204.988 75.3906 204.753 75.7515 204.601 76.1463C204.449 76.541 204.382 76.9613 204.405 77.3814C204.392 78.0342 204.581 78.6762 204.948 79.2264C205.315 79.7765 205.844 80.2102 206.469 80.4726C201.488 81.1879 201.71 86.3654 201.71 86.3654L213.487 86.4165C213.487 86.4165 213.763 81.1453 208.817 80.4385Z" fill="black"/>
<path d="M227.954 89.7558L185.979 89.5735L185.957 94.3762L227.931 94.5586L227.954 89.7558Z" fill="#0E40D7"/>
<path opacity="0.2" d="M227.954 89.7558L185.979 89.5735L185.957 94.3762L227.931 94.5586L227.954 89.7558Z" fill="white"/>
<path d="M73.6411 114.646H73.223L72.0133 114.731C71.3586 114.769 70.7076 114.851 70.0653 114.978C69.6493 115.034 69.2366 115.111 68.8289 115.208L67.4502 115.574C65.1036 116.263 62.8895 117.313 60.8947 118.682C58.259 120.514 56.0582 122.859 54.4369 125.563C53.4841 127.122 52.7257 128.782 52.1776 130.51C51.6017 132.389 51.2701 134.328 51.1903 136.284C51.1373 137.311 51.1551 138.341 51.2437 139.367C51.2437 139.886 51.3949 140.405 51.466 140.933C51.5259 141.466 51.63 141.992 51.7774 142.509C52.5772 145.926 54.2001 149.117 56.5167 151.827C58.8332 154.537 61.7792 156.691 65.1197 158.118C67.5375 159.117 70.1289 159.674 72.7605 159.761C75.4785 159.905 78.1993 159.531 80.7659 158.663L81.5487 158.382H81.6554L81.7444 158.433L92.9608 163.883L92.6317 164.156C91.4309 160.596 90.2746 157.147 89.1538 153.835V153.707L89.2517 153.613C91.9726 150.989 93.9925 147.776 95.1401 144.246C96.1795 141.019 96.4828 137.615 96.0296 134.266C95.6264 131.289 94.6267 128.415 93.0854 125.801C91.7567 123.556 90.0428 121.541 88.0153 119.84C86.3426 118.494 84.4912 117.366 82.5093 116.485C81.0097 115.866 79.448 115.395 77.8484 115.08L76.0694 114.799L74.7796 114.705L73.9969 114.654H73.73C73.8187 114.645 73.9082 114.645 73.9969 114.654H74.7885L76.0783 114.705L77.8573 114.952C79.4768 115.244 81.0598 115.698 82.5805 116.306C84.5964 117.177 86.4811 118.302 88.1843 119.653C90.249 121.346 91.9994 123.361 93.3611 125.614C94.9462 128.256 95.9766 131.169 96.3943 134.189C96.8851 137.59 96.603 141.053 95.5671 144.34C94.412 147.943 92.3609 151.225 89.5897 153.903L89.643 153.681C90.7638 156.994 91.929 160.443 93.1387 163.994L93.3078 164.513L92.8007 164.266L81.5842 158.825H81.7799L80.9794 159.106C78.3633 159.987 75.5922 160.369 72.8227 160.23C70.1344 160.132 67.4888 159.554 65.0219 158.527C60.3162 156.597 56.4011 153.244 53.8766 148.981C52.7148 147.012 51.8664 144.888 51.3593 142.679C51.2204 142.149 51.1165 141.612 51.048 141.07C50.9768 140.533 50.8612 140.005 50.8345 139.477C50.5938 136.447 50.9283 133.401 51.8218 130.485C52.3836 128.733 53.163 127.052 54.1434 125.478C55.8033 122.749 58.05 120.389 60.7345 118.554C62.7623 117.182 65.0135 116.14 67.3968 115.472L68.7933 115.131C69.2044 115.04 69.62 114.969 70.0386 114.918C70.6876 114.803 71.3447 114.735 72.0044 114.714L73.223 114.671C73.3616 114.653 73.5013 114.645 73.6411 114.646Z" fill="#0E40D7"/>
<path d="M78.7112 134.504H77.0656L73.5077 129.718V126.576C73.5077 126.576 70.9637 126.423 71.2661 130.536C71.5686 134.649 71.2661 133.601 71.2661 133.601C71.2661 133.601 65.8669 133.601 65.4222 134.07C64.9774 134.538 64.9507 139.528 64.8885 142.313C64.8544 142.984 65.0556 143.647 65.4601 144.196C65.8646 144.746 66.4492 145.15 67.1211 145.344C67.3094 145.394 67.5039 145.42 67.6993 145.421C69.0513 145.421 75.9271 144.374 75.9271 144.374H78.7646L78.7112 134.504Z" fill="#0E40D7"/>
<path d="M83.4166 133.661L82.4026 144.425H79.5918V133.882L83.4166 133.661Z" fill="#0E40D7"/>
<path d="M116.942 352.793V345.512L103.306 345.419L103.19 356.429L104.035 356.489C107.798 356.719 123.177 357.06 125.703 356.31C128.514 355.476 116.942 352.793 116.942 352.793Z" fill="#0E40D7"/>
<path d="M126.023 355.629C126.023 355.748 120.918 355.85 114.629 355.85C108.34 355.85 103.234 355.748 103.234 355.629C103.234 355.51 108.34 355.408 114.629 355.408C120.918 355.408 126.023 355.51 126.023 355.629Z" fill="#263238"/>
<path d="M117.182 354.283C117.066 354.224 117.182 353.841 117.457 353.432C117.733 353.023 118.107 352.853 118.196 352.938C118.285 353.023 118.098 353.347 117.831 353.696C117.564 354.045 117.297 354.343 117.182 354.283Z" fill="#263238"/>
<path d="M118.053 354.76C117.929 354.76 117.991 354.284 118.258 353.832C118.525 353.381 118.881 353.108 118.978 353.177C119.076 353.245 118.916 353.628 118.667 354.028C118.418 354.428 118.169 354.803 118.053 354.76Z" fill="#263238"/>
<path d="M107.344 355.595C107.291 355.595 107.086 355.442 106.792 355.118C106.434 354.702 106.035 354.32 105.6 353.977C105.173 353.65 104.664 353.436 104.124 353.355C103.706 353.304 103.439 353.355 103.412 353.304C103.386 353.253 103.644 353.074 104.133 353.04C104.778 353.027 105.408 353.232 105.912 353.619C106.384 353.987 106.781 354.435 107.086 354.939C107.291 355.314 107.397 355.561 107.344 355.595Z" fill="#263238"/>
<path d="M117.226 352.913C117.288 353.015 117.057 353.27 116.666 353.406C116.274 353.543 115.928 353.492 115.91 353.406C115.892 353.321 116.168 353.142 116.506 353.023C116.844 352.904 117.155 352.81 117.226 352.913Z" fill="#263238"/>
<path d="M117.013 352.206C117.013 352.333 116.657 352.436 116.194 352.444C115.732 352.453 115.367 352.351 115.376 352.231C115.385 352.112 115.75 352.001 116.194 351.993C116.639 351.984 116.995 352.087 117.013 352.206Z" fill="#263238"/>
<path d="M150.52 352.793V345.512L136.884 345.419L136.768 356.319L137.613 356.378C141.376 356.608 156.764 357.06 159.281 356.31C162.092 355.476 150.52 352.793 150.52 352.793Z" fill="#0E40D7"/>
<path d="M159.602 355.646C159.602 355.765 154.505 355.868 148.207 355.868C141.91 355.868 136.822 355.765 136.822 355.646C136.822 355.527 141.918 355.425 148.207 355.425C154.496 355.425 159.602 355.527 159.602 355.646Z" fill="#263238"/>
<path d="M150.76 354.283C150.653 354.224 150.76 353.841 151.036 353.432C151.311 353.023 151.685 352.853 151.774 352.938C151.863 353.023 151.676 353.347 151.409 353.696C151.142 354.045 150.876 354.343 150.76 354.283Z" fill="#263238"/>
<path d="M151.632 354.76C151.516 354.76 151.569 354.284 151.845 353.832C152.121 353.381 152.468 353.108 152.566 353.177C152.664 353.245 152.495 353.628 152.245 354.028C151.996 354.428 151.756 354.803 151.632 354.76Z" fill="#263238"/>
<path d="M140.922 355.595C140.869 355.595 140.673 355.442 140.371 355.118C140.012 354.702 139.613 354.32 139.179 353.977C138.752 353.65 138.243 353.436 137.702 353.355C137.293 353.304 137.017 353.355 136.991 353.304C136.964 353.253 137.222 353.074 137.711 353.04C138.357 353.027 138.987 353.232 139.49 353.619C139.964 353.985 140.363 354.433 140.664 354.939C140.869 355.314 140.976 355.561 140.922 355.595Z" fill="#263238"/>
<path d="M150.804 352.913C150.867 353.015 150.635 353.27 150.244 353.406C149.853 353.543 149.506 353.492 149.488 353.406C149.47 353.321 149.746 353.142 150.084 353.023C150.422 352.904 150.733 352.81 150.804 352.913Z" fill="#263238"/>
<path d="M150.609 352.206C150.609 352.333 150.253 352.436 149.79 352.444C149.328 352.453 148.972 352.351 148.981 352.231C148.99 352.112 149.346 352.001 149.79 351.993C150.235 351.984 150.609 352.087 150.609 352.206Z" fill="#263238"/>
<path d="M200.758 136.582C200.403 136.233 199.522 136.403 199.522 136.403C199.61 135.913 199.61 135.412 199.522 134.921C199.362 134.444 198.241 134.538 198.241 134.538C198.189 134.137 198.189 133.73 198.241 133.329C198.25 133.24 198.23 133.15 198.184 133.073C198.138 132.995 198.068 132.933 197.983 132.895C197.453 132.688 196.883 132.589 196.311 132.605C195.626 132.137 198.401 128.415 199.433 127.223C200.465 126.031 200.278 125.103 199.362 125.103C198.73 125.103 195.493 128.679 194.496 129.88C193.5 131.081 190.858 134.419 190.769 131.754C190.68 129.088 189.56 127.078 188.857 126.738C188.154 126.397 187.407 127.198 187.79 127.939C188.126 128.78 188.335 129.663 188.412 130.561C188.509 131.277 188.476 132.003 188.314 132.707C188.019 134.018 187.618 135.305 187.114 136.556H187.042C187.042 136.556 167.634 154.38 166.228 155.648C164.974 156.789 139.748 154.294 134.687 153.783C132.967 153.542 131.23 153.429 129.492 153.443C127.295 153.536 126.904 153.835 124.716 153.86C119.19 153.919 113.676 154.383 108.224 155.248C105.756 155.65 103.45 156.693 101.558 158.264C99.6665 159.835 98.2617 161.873 97.4972 164.155C92.4004 179.398 80.8548 215.479 78.8179 235.746C77.2787 238.418 75.8891 241.167 74.655 243.981C73.223 247.711 73.5699 247.838 74.0502 247.924C75.3489 248.153 76.8254 241.46 77.3769 243.078C77.9284 244.696 74.575 251.057 75.9359 251.245C77.7149 251.483 79.1292 244.432 79.2982 243.87C79.4672 243.308 80.3478 243.487 80.1877 244.015C79.9297 244.764 77.4303 252.709 79.1737 252.965C80.1343 253.101 80.2411 251.423 80.2411 251.423C80.2411 251.423 82.02 243.819 82.8295 243.972C83.6389 244.126 82.7761 248.613 82.3669 250.112C81.9578 251.611 82.5271 252.369 83.3632 252.003C83.9324 251.747 85.2934 247.191 85.667 245.709C86.0406 244.228 86.9745 240.123 88.2287 242.499C89.4829 244.875 91.3864 246.254 92.1692 246.289C92.3455 246.269 92.5118 246.2 92.6465 246.089C92.7813 245.978 92.8783 245.831 92.9252 245.667C92.9721 245.503 92.9666 245.33 92.9096 245.169C92.8525 245.008 92.7464 244.867 92.605 244.764C91.9317 244.135 91.3539 243.418 90.8883 242.635C90.4733 242.026 90.1724 241.351 89.9988 240.643C89.6403 239.23 89.4317 237.786 89.3761 236.334L89.2338 235.482C91.2263 226.038 96.9635 198.32 105.245 180.616L108.643 187.309L110.119 192.265L101.064 213.665L139.686 213.18L133.922 191.942L140.922 169.801C148.492 169.963 167.927 170.236 171.165 168.831C175.239 167.127 196.311 141.649 196.311 141.649C197.684 140.627 199 139.535 200.251 138.379C200.251 138.379 201.532 137.348 200.758 136.582Z" fill="#FFBE9D"/>
<path d="M99.3652 197.852C100.486 194.19 106.241 176.086 106.241 176.086C106.241 176.086 109.07 190.843 108.322 192.623C107.635 194.147 106.823 195.616 105.894 197.017C99.3652 206.529 100.219 211.289 100.219 211.289L139.668 210.14C139.757 204.86 136.493 192.581 135.817 190.622C135.141 188.663 137.391 182.251 137.391 182.251C137.391 182.251 141.838 177.917 141.678 175.686C141.594 173.681 141.335 171.688 140.904 169.725L164.921 170.576L164.165 154.993L129.67 151.689C128.469 154.933 117.609 153.341 117.609 153.341C105.885 153.715 105.156 155.776 100.281 159.404C95.4069 163.031 87.3392 194.164 87.3392 194.164L99.3652 197.852Z" fill="#0E40D7"/>
<path d="M122.688 194.164C122.004 194.281 121.308 194.316 120.615 194.267C119.325 194.267 117.555 194.181 115.607 193.994C113.659 193.807 111.898 193.543 110.644 193.304C109.952 193.219 109.274 193.053 108.625 192.81C109.32 192.811 110.014 192.873 110.697 192.998C111.96 193.151 113.713 193.364 115.652 193.551C117.591 193.739 119.352 193.866 120.624 193.952C121.317 193.96 122.008 194.031 122.688 194.164Z" fill="#263238"/>
<path d="M125.392 190.954C124.708 191.275 123.985 191.512 123.239 191.661C119.69 192.554 116.029 192.969 112.361 192.896C111.602 192.919 110.842 192.851 110.101 192.691C110.851 192.601 111.606 192.564 112.361 192.581C113.757 192.538 115.678 192.444 117.795 192.206C119.912 191.967 121.798 191.627 123.132 191.354C123.873 191.165 124.629 191.031 125.392 190.954Z" fill="#263238"/>
<path d="M138.663 176.631C138.645 177.28 138.552 177.925 138.387 178.555C138.156 179.739 137.8 181.357 137.346 183.128C136.893 184.899 136.457 186.534 136.066 187.641C135.908 188.275 135.675 188.889 135.372 189.472C135.421 188.825 135.547 188.185 135.745 187.565C136.083 186.236 136.466 184.704 136.893 183.026C137.32 181.348 137.729 179.816 138.067 178.487C138.187 177.848 138.387 177.225 138.663 176.631Z" fill="#263238"/>
<path d="M99.7832 195.68C97.7254 195.376 95.6946 194.923 93.708 194.326C91.6781 193.872 89.6861 193.274 87.7484 192.538C89.8052 192.847 91.8357 193.3 93.8236 193.892C95.854 194.345 97.8461 194.943 99.7832 195.68Z" fill="#263238"/>
<path d="M141.331 169.537C140.996 169.593 140.653 169.593 140.317 169.537C139.388 169.446 138.476 169.237 137.604 168.916C136.149 168.392 134.825 167.583 133.716 166.54C132.607 165.498 131.738 164.244 131.165 162.861C130.531 161.339 130.261 159.701 130.373 158.067C130.413 156.719 130.834 155.406 131.591 154.269C132.124 153.503 132.921 152.94 133.842 152.676C134.088 152.611 134.343 152.58 134.598 152.583C134.776 152.583 134.865 152.583 134.865 152.583C134.865 152.583 134.491 152.583 133.895 152.813C133.05 153.112 132.333 153.672 131.858 154.405C130.649 156.227 130.311 159.557 131.6 162.665C132.201 164.131 133.14 165.447 134.349 166.514C135.339 167.388 136.48 168.091 137.72 168.592C138.884 169.033 140.095 169.35 141.331 169.537Z" fill="#263238"/>
<path d="M162.065 170.27C161.843 167.658 161.772 165.037 161.852 162.418C161.782 159.802 161.865 157.183 162.101 154.575C162.324 157.184 162.395 159.802 162.315 162.418C162.389 165.038 162.306 167.659 162.065 170.27Z" fill="#263238"/>
<path d="M129.439 152.642C129.537 150.743 129.741 148.597 129.741 148.597C129.741 148.597 134.651 148.078 134.945 143.224C135.238 138.37 134.945 127.172 134.945 127.172L126.05 122.812L116.177 130.246L117.698 154.516L126.753 155.069C127.445 155.088 128.116 154.842 128.62 154.388C129.123 153.933 129.418 153.305 129.439 152.642Z" fill="#FFBE9D"/>
<path d="M130.319 139.384C130.319 139.384 130.319 139.477 130.239 139.588C130.173 139.668 130.088 139.732 129.99 139.773C129.892 139.815 129.786 139.833 129.679 139.826C129.11 139.826 128.558 139.196 128.363 138.464C128.27 138.109 128.27 137.737 128.363 137.382C128.381 137.227 128.439 137.079 128.532 136.951C128.626 136.824 128.751 136.72 128.896 136.65C129.016 136.603 129.15 136.603 129.27 136.65C129.359 136.692 129.43 136.761 129.474 136.846C129.537 136.991 129.474 137.084 129.474 137.076C129.474 137.067 129.474 136.991 129.386 136.906C129.339 136.845 129.271 136.802 129.194 136.786C129.116 136.771 129.036 136.783 128.967 136.82C128.858 136.884 128.768 136.972 128.704 137.078C128.64 137.183 128.605 137.303 128.603 137.425C128.528 137.742 128.528 138.07 128.603 138.387C128.781 139.051 129.261 139.588 129.688 139.639C129.771 139.65 129.856 139.644 129.938 139.622C130.019 139.6 130.094 139.562 130.159 139.511C130.266 139.443 130.302 139.375 130.319 139.384Z" fill="#EB996E"/>
<path d="M137.996 124.549C137.311 122.318 134.829 121.211 132.57 120.598C129.128 119.661 125.409 119.253 122.047 120.436C118.685 121.62 114.647 123.698 114.647 127.249C112.663 127.096 111.524 128.756 110.742 130.817C110.241 132.072 109.941 133.393 109.852 134.734C109.603 139.384 108.242 145.804 105.093 149.211C103.314 151.11 100.851 152.421 99.8366 154.788C98.9471 156.841 99.4096 159.276 98.5824 161.354C97.8441 163.185 96.2163 164.488 95.0244 166.08C93.8101 167.887 93.0955 169.959 92.9476 172.102C92.7998 174.246 93.2237 176.39 94.1794 178.334C95.142 180.228 96.4972 181.914 98.1625 183.29C99.8279 184.666 101.768 185.704 103.866 186.339C108.021 187.549 112.451 187.59 116.63 186.458C119.766 185.74 122.692 184.351 125.187 182.396C127.74 180.4 129.494 177.62 130.15 174.528C130.782 171.053 129.768 167.519 129.012 164.062C126.646 153.136 127.322 152.566 130.311 142.424C130.382 142.245 130.417 142.057 130.471 141.879C130.524 141.7 130.551 141.615 130.586 141.478C130.671 141.078 130.716 140.67 130.72 140.261C130.283 140.416 129.809 140.449 129.354 140.355C128.899 140.262 128.481 140.046 128.149 139.733C127.817 139.399 127.585 138.985 127.479 138.535C127.372 138.085 127.395 137.616 127.544 137.178C127.754 136.699 128.067 136.267 128.462 135.91C128.857 135.554 129.327 135.281 129.839 135.109C130.826 134.717 131.885 134.513 132.855 134.078C134.909 133.142 136.332 131.2 137.302 129.165C138.099 127.754 138.345 126.118 137.996 124.549Z" fill="#263238"/>
<path d="M130.675 139.613C130.863 139.879 131.018 140.165 131.138 140.465C131.405 141.002 131.76 141.759 132.152 142.637L132.223 142.798H132.036L131.147 142.875C130.533 142.875 130.017 142.986 129.412 142.977C129.359 142.966 129.311 142.942 129.27 142.908C129.23 142.873 129.199 142.83 129.181 142.781C129.154 142.704 129.154 142.62 129.181 142.543C129.201 142.428 129.228 142.314 129.261 142.202L129.421 141.598C129.501 141.194 129.627 140.8 129.795 140.422C129.778 140.834 129.715 141.242 129.608 141.64L129.483 142.245C129.439 142.449 129.359 142.764 129.483 142.739C129.928 142.739 130.56 142.645 131.147 142.611L132.036 142.534L131.921 142.722C131.538 141.87 131.218 141.07 131.031 140.516C130.867 140.233 130.747 139.929 130.675 139.613Z" fill="#0E40D7"/>
<path d="M100.219 211.289L139.668 210.14L156.835 274.296L153.678 347.888H132.819L135.372 275.863L120.117 231.199L122.465 350.741L101.384 351.039L99.1695 238.676C99.0716 235.55 98.0042 228.508 98.4045 225.408L100.219 211.289Z" fill="#263238"/>
<path d="M125.365 232.11C124.719 232.149 124.071 232.112 123.435 231.999C122.243 231.863 120.615 231.625 118.827 231.284C117.039 230.943 115.438 230.552 114.282 230.237C113.664 230.107 113.066 229.901 112.503 229.624C112.503 229.496 115.403 230.16 118.961 230.85C122.519 231.54 125.383 231.982 125.365 232.11Z" fill="#455A64"/>
<path d="M153.464 343.852C153.464 343.971 148.741 344.073 142.915 344.073C137.089 344.073 132.356 343.971 132.356 343.852C132.356 343.733 137.08 343.63 142.915 343.63C148.75 343.63 153.464 343.724 153.464 343.852Z" fill="#455A64"/>
<path d="M122.278 347.633C122.278 347.761 117.689 347.854 112.032 347.854C106.374 347.854 101.793 347.761 101.793 347.633C101.793 347.505 106.383 347.411 112.032 347.411C117.68 347.411 122.278 347.514 122.278 347.633Z" fill="#455A64"/>
<path d="M119.557 347.326C119.432 347.326 118.881 321.209 118.32 288.994C117.76 256.78 117.431 230.645 117.546 230.645C117.662 230.645 118.231 256.754 118.783 288.986C119.334 321.217 119.69 347.326 119.557 347.326Z" fill="#455A64"/>
<path d="M150.662 343.852C150.652 343.736 150.652 343.619 150.662 343.503V342.481C150.662 341.561 150.733 340.241 150.787 338.564C150.911 335.158 151.089 330.21 151.312 324.147C151.792 311.952 152.468 295.143 153.206 276.587C153.206 276.408 153.206 276.238 153.206 276.085V276.144C148.536 258.262 144.311 242.031 141.242 230.288L137.684 216.399C137.275 214.772 136.964 213.503 136.742 212.618C136.635 212.201 136.564 211.877 136.501 211.63C136.467 211.519 136.446 211.405 136.439 211.289C136.485 211.397 136.521 211.508 136.546 211.622C136.617 211.86 136.706 212.184 136.831 212.592C137.071 213.444 137.418 214.738 137.862 216.356C138.752 219.643 140.006 224.378 141.572 230.211C144.667 241.946 148.937 258.134 153.669 276.042V276.102C153.669 276.255 153.669 276.434 153.669 276.604C152.877 295.16 152.157 311.961 151.632 324.155C151.356 330.227 151.125 335.14 150.965 338.564C150.876 340.267 150.804 341.561 150.76 342.481C150.76 342.915 150.707 343.256 150.698 343.503C150.699 343.62 150.687 343.737 150.662 343.852Z" fill="#455A64"/>
<path d="M143.857 274.586C142.359 275.058 140.816 275.386 139.25 275.565C137.329 275.88 135.692 276.102 134.954 276.136V275.965C135.194 276.034 135.318 276.076 135.318 276.11C135.318 276.144 135.167 276.11 134.918 276.11H134.384L134.918 275.957C135.612 275.761 137.249 275.437 139.17 275.105C140.711 274.785 142.281 274.611 143.857 274.586Z" fill="#455A64"/>
<path d="M143.493 277.03C142.105 277.091 140.715 277.031 139.339 276.851C137.949 276.824 136.565 276.679 135.203 276.417C137.983 276.2 140.781 276.407 143.493 277.03Z" fill="#455A64"/>
<path opacity="0.2" d="M100.05 212.643C100.517 213.218 101.106 213.691 101.777 214.033C102.448 214.375 103.187 214.578 103.946 214.628C105.535 214.808 107.142 214.779 108.723 214.542C118.907 213.461 129.697 212.465 139.668 210.14C126.761 210.83 113.126 210.6 100.219 211.289L100.086 212.345" fill="black"/>
<g opacity="0.2">
<path d="M113.348 230.058L120.624 257.086L120.117 231.199L113.348 230.058Z" fill="black"/>
</g>
</svg>
