<svg width="46" height="46" viewBox="0 0 46 46" fill="none" xmlns="http://www.w3.org/2000/svg">
<path d="M23 0.5C18.5499 0.5 14.1998 1.8196 10.4997 4.29193C6.79957 6.76426 3.91569 10.2783 2.21272 14.3896C0.509749 18.501 0.0641739 23.025 0.932341 27.3895C1.80051 31.7541 3.94343 35.7632 7.09011 38.9099C10.2368 42.0566 14.2459 44.1995 18.6105 45.0677C22.975 45.9358 27.499 45.4903 31.6104 43.7873C35.7217 42.0843 39.2357 39.2004 41.7081 35.5003C44.1804 31.8002 45.5 27.4501 45.5 23C45.4935 17.0346 43.1209 11.3154 38.9028 7.09722C34.6846 2.87905 28.9654 0.506452 23 0.5V0.5ZM23 41.75C19.2916 41.75 15.6665 40.6503 12.5831 38.59C9.49964 36.5298 7.09641 33.6014 5.67727 30.1753C4.25813 26.7492 3.88681 22.9792 4.61029 19.3421C5.33376 15.7049 7.11952 12.364 9.74176 9.74175C12.364 7.11951 15.7049 5.33375 19.3421 4.61028C22.9792 3.8868 26.7492 4.25812 30.1753 5.67726C33.6014 7.0964 36.5298 9.49964 38.5901 12.5831C40.6503 15.6665 41.75 19.2916 41.75 23C41.7445 27.9711 39.7673 32.7371 36.2522 36.2522C32.7371 39.7673 27.9711 41.7445 23 41.75ZM23 13.625C21.6747 13.6225 20.3913 14.0891 19.3771 14.9422C18.3628 15.7953 17.6832 16.9798 17.4587 18.2859C17.2341 19.592 17.479 20.9355 18.1501 22.0784C18.8211 23.2212 19.875 24.0897 21.125 24.53V32.375H24.875V24.53C26.125 24.0897 27.1789 23.2212 27.85 22.0784C28.521 20.9355 28.7659 19.592 28.5414 18.2859C28.3168 16.9798 27.6372 15.7953 26.623 14.9422C25.6087 14.0891 24.3253 13.6225 23 13.625ZM23 21.125C22.6292 21.125 22.2667 21.015 21.9583 20.809C21.65 20.603 21.4096 20.3101 21.2677 19.9675C21.1258 19.6249 21.0887 19.2479 21.161 18.8842C21.2334 18.5205 21.412 18.1864 21.6742 17.9242C21.9364 17.6619 22.2705 17.4834 22.6342 17.411C22.9979 17.3387 23.3749 17.3758 23.7175 17.5177C24.0601 17.6596 24.353 17.9 24.559 18.2083C24.765 18.5166 24.875 18.8792 24.875 19.25C24.875 19.7473 24.6775 20.2242 24.3258 20.5758C23.9742 20.9275 23.4973 21.125 23 21.125Z" fill="url(#paint0_linear_760_263)"/>
<defs>
<linearGradient id="paint0_linear_760_263" x1="2.61538" y1="19.8182" x2="43.9626" y2="20.1436" gradientUnits="userSpaceOnUse">
<stop offset="0.25" stop-color="#0E40D7"/>
<stop offset="0.953125" stop-color="#601369"/>
</linearGradient>
</defs>
</svg>
